<?xml version="1.0" standalone="no"?><!DOCTYPE svg PUBLIC "-//W3C//DTD SVG 1.1//EN" "http://www.w3.org/Graphics/SVG/1.1/DTD/svg11.dtd"><svg t="1723371952745" class="icon" viewBox="0 0 1024 1024" version="1.1" xmlns="http://www.w3.org/2000/svg" p-id="2371" xmlns:xlink="http://www.w3.org/1999/xlink" width="200" height="200"><path d="M328.93155555 803.04355555c-20.13866667 0-36.40888889-16.27022222-36.40888888-36.40888888V508.81422222c0-9.67111111 3.86844445-19.00088889 10.80888888-25.82755555l73.84177778-73.27288889c6.82666667-6.71288889 16.04266667-10.58133333 25.6-10.58133333h108.20266667v-145.63555556H342.47111111L184.32 389.91644445v376.71822222c0 20.13866667-16.27022222 36.40888889-36.40888889 36.40888888s-36.40888889-16.27022222-36.40888889-36.40888888V373.19111111c0-10.58133333 4.66488889-20.70755555 12.62933333-27.53422222l180.90666667-156.10311111c6.59911111-5.68888889 15.01866667-8.87466667 23.77955556-8.87466667h218.45333333c20.13866667 0 36.40888889 16.27022222 36.40888889 36.40888889v218.45333333c0 20.13866667-16.27022222 36.40888889-36.40888889 36.40888889H417.792l-52.45155555 51.99644445v242.688c0 20.13866667-16.27022222 36.40888889-36.4088889 36.40888888z" p-id="2372" fill="#f4ea2a"></path><path d="M657.74933333 238.81955555m-36.40888888 0a36.40888889 36.40888889 0 1 0 72.81777777 0 36.40888889 36.40888889 0 1 0-72.81777777 0Z" p-id="2373" fill="#f4ea2a"></path><path d="M657.74933333 330.06933333m-36.40888888 0a36.40888889 36.40888889 0 1 0 72.81777777 0 36.40888889 36.40888889 0 1 0-72.81777777 0Z" p-id="2374" fill="#f4ea2a"></path><path d="M657.74933333 422.34311111m-36.40888888 0a36.40888889 36.40888889 0 1 0 72.81777777 0 36.40888889 36.40888889 0 1 0-72.81777777 0Z" p-id="2375" fill="#f4ea2a"></path><path d="M733.29777778 453.06311111m-36.40888889 0a36.40888889 36.40888889 0 1 0 72.81777778 0 36.40888889 36.40888889 0 1 0-72.81777778 0Z" p-id="2376" fill="#f4ea2a"></path><path d="M802.58844445 513.13777778m-36.4088889 0a36.40888889 36.40888889 0 1 0 72.81777778 0 36.40888889 36.40888889 0 1 0-72.81777778 0Z" p-id="2377" fill="#f4ea2a"></path><path d="M737.84888889 330.29688889m-36.40888889 0a36.40888889 36.40888889 0 1 0 72.81777778 0 36.40888889 36.40888889 0 1 0-72.81777778 0Z" p-id="2378" fill="#f4ea2a"></path><path d="M829.66755555 330.29688889m-36.40888888 0a36.40888889 36.40888889 0 1 0 72.81777778 0 36.40888889 36.40888889 0 1 0-72.81777778 0Z" p-id="2379" fill="#f4ea2a"></path><path d="M803.61244445 148.13866667m-36.4088889 0a36.40888889 36.40888889 0 1 0 72.81777778 0 36.40888889 36.40888889 0 1 0-72.81777778 0Z" p-id="2380" fill="#f4ea2a"></path><path d="M733.29777778 201.27288889m-36.40888889 0a36.40888889 36.40888889 0 1 0 72.81777778 0 36.40888889 36.40888889 0 1 0-72.81777778 0Z" p-id="2381" fill="#f4ea2a"></path></svg>