<?xml version="1.0" standalone="no"?><!DOCTYPE svg PUBLIC "-//W3C//DTD SVG 1.1//EN" "http://www.w3.org/Graphics/SVG/1.1/DTD/svg11.dtd"><svg t="1723372019757" class="icon" viewBox="0 0 1024 1024" version="1.1" xmlns="http://www.w3.org/2000/svg" p-id="2734" xmlns:xlink="http://www.w3.org/1999/xlink" width="200" height="200"><path d="M191.8 639.1c-17.7 0-32-14.3-32-32 0-73.1 22.2-143.2 64.3-202.7 41.1-58.1 97.9-102 164.4-126.8 16.6-6.2 35 2.2 41.2 18.8 6.2 16.6-2.2 35-18.8 41.2-111.9 41.7-187 150-187 269.5-0.1 17.7-14.4 32-32.1 32zM830.8 639.1c-17.7 0-32-14.3-32-32 0-119.4-75.2-227.7-187-269.5-16.6-6.2-25-24.6-18.8-41.2 6.2-16.6 24.6-25 41.2-18.8 66.5 24.8 123.3 68.6 164.4 126.8 42 59.5 64.3 129.6 64.3 202.6-0.1 17.8-14.4 32.1-32.1 32.1z" fill="#d4237a" p-id="2735"></path><path d="M830.8 639.1h-639c-17.7 0-32-14.3-32-32s14.3-32 32-32h639c17.7 0 32 14.3 32 32s-14.3 32-32 32z" fill="#d4237a" p-id="2736"></path><path d="M513 767c-88.1 0-159.8-71.7-159.8-159.8 0-17.7 14.3-32 32-32s32 14.3 32 32c0 52.8 43 95.8 95.8 95.8s95.8-43 95.8-95.8c0-17.7 14.3-32 32-32s32 14.3 32 32c0 88.1-71.7 159.8-159.8 159.8zM623 339.7c-17.7 0-32-14.3-32-32v-84.2H431.7v84.2c0 17.7-14.3 32-32 32s-32-14.3-32-32V191.5c0-17.7 14.3-32 32-32H623c17.7 0 32 14.3 32 32v116.2c0 17.7-14.3 32-32 32z" fill="#d4237a" p-id="2737"></path></svg>