<?xml version="1.0" standalone="no"?><!DOCTYPE svg PUBLIC "-//W3C//DTD SVG 1.1//EN" "http://www.w3.org/Graphics/SVG/1.1/DTD/svg11.dtd"><svg t="1723372049111" class="icon" viewBox="0 0 1024 1024" version="1.1" xmlns="http://www.w3.org/2000/svg" p-id="3282" width="200" height="200" xmlns:xlink="http://www.w3.org/1999/xlink"><path d="M894.2 162h-64c-17.7 0-32-14.3-32-32s14.3-32 32-32h64c17.7 0 32 14.3 32 32s-14.4 32-32 32zM894.2 320.9h-64c-17.7 0-32-14.3-32-32s14.3-32 32-32h64c17.7 0 32 14.3 32 32s-14.4 32-32 32zM830.2 481.1c-17.6 0-31.9-14.2-32-31.8-0.1-17.7 14.2-32.1 31.8-32.2l64-0.3h0.2c17.6 0 31.9 14.2 32 31.8 0.1 17.7-14.2 32.1-31.8 32.2l-64 0.3h-0.2zM387 799.8c-76.9 0-149.3-30-203.6-84.4C129 661.1 99 588.7 99 511.8c0-64.6 20.9-125.6 60.4-176.5 38.3-49.3 92.4-85.4 152.3-101.6 17.1-4.6 34.6 5.5 39.2 22.5 4.6 17.1-5.5 34.6-22.5 39.2C231 321.8 163 410.8 163 511.8c0 123.5 100.5 224 224 224s224-100.5 224-224c0-18.8-2.3-37.5-6.9-55.6-4.4-17.1 6-34.5 23.1-38.9 17.1-4.4 34.5 6 38.9 23.1 5.9 23.2 8.9 47.3 8.9 71.4 0 76.9-30 149.3-84.4 203.6-54.3 54.4-126.7 84.4-203.6 84.4z" p-id="3283" fill="#62e2de"></path><path d="M385.3 512.2m-63.8 0a63.8 63.8 0 1 0 127.6 0 63.8 63.8 0 1 0-127.6 0Z" p-id="3284" fill="#62e2de"></path><path d="M704.1 480.4l-69.1-0.1c-17.7 0-32-14.4-31.9-32.1 0-17.7 14.4-31.9 32-31.9h0.1l36.9 0.1-0.6-243-340.7 121.4c-16.6 5.9-35-2.7-40.9-19.4-5.9-16.6 2.7-35 19.4-40.9L692.6 97.8c9.8-3.5 20.7-2 29.2 4s13.6 15.7 13.6 26.1l0.8 320.4c0 8.5-3.3 16.7-9.4 22.7-6 6-14.2 9.4-22.7 9.4z" p-id="3285" fill="#62e2de"></path></svg>